<?xml version="1.0" standalone="no"?>
<!DOCTYPE svg PUBLIC "-//W3C//DTD SVG 20010904//EN"
 "http://www.w3.org/TR/2001/REC-SVG-20010904/DTD/svg10.dtd">
<svg version="1.0" xmlns="http://www.w3.org/2000/svg"
 width="260.000000pt" height="260.000000pt" viewBox="0 0 260.000000 260.000000"
 preserveAspectRatio="xMidYMid meet">
<metadata>
Created by potrace 1.11, written by Peter Selinger 2001-2013
</metadata>
<g transform="translate(0.000000,260.000000) scale(0.100000,-0.100000)"
fill="#000000" stroke="none">
<path d="M0 1300 l0 -1300 1300 0 1300 0 0 1300 0 1300 -1300 0 -1300 0 0
-1300z m630 670 c0 -6 -87 -10 -240 -10 -153 0 -240 4 -240 10 0 6 87 10 240
10 153 0 240 -4 240 -10z m570 -450 c0 -7 -182 -10 -525 -10 -343 0 -525 3
-525 10 0 7 182 10 525 10 343 0 525 -3 525 -10z m-432 -457 c-115 -2 -301 -2
-415 0 -115 1 -21 2 207 2 228 0 322 -1 208 -2z m1572 -453 c0 -20 -7 -20
-1095 -20 -1088 0 -1095 0 -1095 20 0 20 7 20 1095 20 1088 0 1095 0 1095 -20z"/>
</g>
</svg>
