<svg xmlns="http://www.w3.org/2000/svg" id="Capa_1" viewBox="0 0 350.692 350.692" width="512" height="512"><g fill="#f4efbb"><path d="M345.19 67.128H5.502A5.502 5.502 0 0 0 0 72.631V278.06a5.503 5.503 0 0 0 5.502 5.504H345.19a5.503 5.503 0 0 0 5.503-5.504V72.631a5.504 5.504 0 0 0-5.503-5.503zm-5.504 205.43H11.006V78.134h328.681v194.424z"/><path d="M89.194 175.281c18.475 0 33.505-15.036 33.505-33.519s-15.03-33.519-33.505-33.519c-18.476 0-33.507 15.036-33.507 33.519s15.032 33.519 33.507 33.519zm0-56.032c12.405 0 22.499 10.1 22.499 22.513 0 12.414-10.094 22.513-22.499 22.513-12.407 0-22.501-10.099-22.501-22.513 0-12.413 10.094-22.513 22.501-22.513zM47.994 242.585a5.503 5.503 0 0 0 5.503-5.503v-15.557c0-11.908 9.69-21.597 21.603-21.597h28.418c11.911 0 21.602 9.689 21.602 21.597v15.557a5.503 5.503 0 0 0 11.006 0v-15.557c0-17.977-14.627-32.603-32.607-32.603H75.1c-17.981 0-32.608 14.626-32.608 32.603v15.557a5.501 5.501 0 0 0 5.502 5.503zM151.927 119.249h150.774a5.503 5.503 0 0 0 0-11.006H151.927a5.502 5.502 0 1 0 0 11.006zM302.701 231.58H193.52a5.502 5.502 0 0 0-5.502 5.503 5.502 5.502 0 0 0 5.502 5.503h109.182a5.503 5.503 0 1 0-.001-11.006zM302.701 171.441h-67.872a5.502 5.502 0 1 0 0 11.006h67.872a5.503 5.503 0 1 0 0-11.006zM302.701 201.506h-67.872a5.503 5.503 0 0 0 0 11.006h67.872a5.503 5.503 0 1 0 0-11.006z"/></g></svg>