<svg id="Layer_1" xmlns="http://www.w3.org/2000/svg" viewBox="0 0 182.5 74.2"><style>.st0{fill:#f4efbb}.st1{font-family:&amp;apos;TitilliumWeb-Thin&amp;apos;}.st2{font-size:23.2908px}.st3{font-family:&amp;apos;TitilliumWeb-Regular&amp;apos;}.st4{font-size:26.3288px}</style><g id="Logo_3_"><text transform="translate(44.573 19.797)"><tspan x="0" y="0" class="st0 st1 st2">AT YOUR SIDE</tspan><tspan x="0" y="25.3" class="st0 st3 st4">MARKETING</tspan></text><g id="XMLID_3_"><path class="st0" d="M29.2 53.7c-.3 2.5-.9 4.6-2.1 6.1l.4-36.5 1.9 2.1c.4.4.5.9.3 1.4-2.5 7.8.3 19.1-.5 26.9zM20.5 52.1v.7c-.2.7-.8 2.5-1.4 4.7-4.2 2.3-5.5-2.1-5.5-2.1-.3-3.1 6.4-6 6.4-6l.5 2.7z"/><path class="st0" d="M19.1 57.5c.6-2.2 1.2-3.9 1.4-4.7.1-.2.1-.5 0-.7l-.6-2.7-.4-2.1-.2-3.6c.1-1.7.1-3.2 0-4.7-.1-2-.3-3.9-.7-5.5-1.1-5.5-3.3-8.7-4.5-10.1-.7-.8-1.9-.7-2.4.2-1.2 2.2-1.5 6.8-1.6 7.9 0 .2 0 .3.1.5 3.2 10.8-4.4 18.5-5.6 19.6-.1.1-.2.2-.3.2-1.3.7-2.3.8-3 .5C.2 52-.1 50.5.8 49.7 5.6 46 3.7 34.8 3 27.1c-.2-1.9-1.5-3.3-1.3-5.9C2 16.4 4.5 5 4.5 5l.2-.9c.2-.9 1-1.6 2-1.6h17.5c.7 0 1.3.5 1.4 1.2.8 3.8 3.5 15.5 5.2 17 .2.1.3.3.4.5.3.7 1 2.1 1.8 3.1.7 1 .7 2.3 0 3.4-.3.5-.6.9-.6 1.1 0 0 .3 6.1 0 6.9-1.5 3.3 1.5 16.3-3.2 18 .8-7.8-2-19.1.6-26.9.2-.5 0-1.1-.3-1.4l-1.9-2.1-.6 36.5c-1 1.4-3 8.8-3 8.8-2.7 9.5-6.9 3.8-7.9 2.1-.2-.3-.3-.7-.2-1 .2-2 1.9-7.9 3.2-12.2z"/><path class="st0" d="M19.5 47.3c-12 2-2.4-6.5-.5-8.1l.3 4.4c0 .5-.1 1.1-.1 1.7v.4l.3 1.6z"/><path class="st0" d="M19.2 45.7v-.4c0-.6.1-1.1.1-1.7l.2 3.6-.3-1.5zM19.3 38.9c.1 1.4.1 3 0 4.7l-.3-4.4.3-.3zM19.3 38.9H19l-.4-5.5c.3 1.7.6 3.5.7 5.5z"/><path class="st0" d="M19 39h.3s-.1.1-.3.2V39zM18.6 33.4L19 39c-9.8 1.1-.5-5.5-.4-5.6z"/></g></g></svg>